PathFileType	4	(X/Y/Z)	C:/Users/beibeiliu/ov580/test_trc/User3\sequence.25_training_dense_right.trc
DataRate	CameraRate	NumFrames	NumMarkers	Units	OrigDataRate	OrigDataStartFrame	OrigNumFrames
120	120	18	19	mm	120	26	75
Frame#	Time	ThumbCMC			ThumbMCP			ThumbIP			ThumbTip			IndexMCP			IndexPIP			IndexTip			MiddleMCP			MiddlePIP			MiddleTip			RingMCP			RingPIP			RingTip			PinkyMCP			PinkyPIP			PinkyTip			BackHand1			BackHand2			BackHand3	
		X0	Y0	Z0	X1	Y1	Z1	X2	Y2	Z2	X3	Y3	Z3	X4	Y4	Z4	X5	Y5	Z5	X6	Y6	Z6	X7	Y7	Z7	X8	Y8	Z8	X9	Y9	Z9	X10	Y10	Z10	X11	Y11	Z11	X12	Y12	Z12	X13	Y13	Z13	X14	Y14	Z14	X15	Y15	Z15	X16	Y16	Z16	X17	Y17	Z17	X18	Y18	Z18	
25	0.208333	78.1751	-6.6473	2.03812	62.8004	-18.8037	-22.5283	52.2975	-26.7614	-45.1918	52.2496	-38.5169	-69.8076	96.8959	4.16391	-67.8862	84.813	-10.396	-93.3614	69.173	-34.4462	-101.838	115.979	-7.09905	-77.9916	103.494	-21.6047	-100.454	76.8815	-52.99	-106.282	129.928	-22.2783	-70.6992	116.635	-38.3982	-94.5672	98.6858	-57.4157	-97.5234	141.016	-39.532	-58.5772	131.274	-52.9051	-76.6065	111.238	-71.5073	-83.9299	143.958	-11.1376	-13.5663	145.479	-12.9418	14.5033	117.121	7.43487	1.56813	
26	0.216667	81.3759	-8.18166	2.78715	64.9037	-18.3799	-21.4658	49.8474	-25.4663	-46.2619	48.4223	-37.1132	-70.6448	95.9509	5.20181	-67.2267	86.3726	-9.23508	-92.7729	64.3521	-31.3212	-100.875	114.588	-3.98558	-74.4112	99.6759	-23.2079	-100.991	80.2884	-50.8518	-103.85	126.419	-18.809	-72.8444	112.961	-35.8462	-94.1886	95.671	-62.0274	-95.7653	140.221	-39.3862	-60.3438	125.206	-49.2909	-78.2124	107.846	-67.3254	-83.0876	140.573	-9.85424	-16.8022	145.418	-15.0347	12.8477	117.631	8.65072	2.74465	
27	0.225	79.0007	-6.27067	6.46429	61.2738	-17.3937	-19.832	49.7762	-25.0194	-51.0899	46.113	-36.6278	-69.6577	97.7793	4.05057	-69.6306	84.199	-7.3495	-92.8848	63.9283	-30.7948	-101.797	113.923	-4.04902	-75.8391	100.406	-21.4141	-101.154	74.5079	-50.3961	-102.853	130.059	-19.8628	-68.5338	113.918	-33.4745	-93.2856	96.8474	-61.5484	-95.188	140.211	-37.1482	-58.7434	131.275	-51.7409	-78.2718	105.445	-66.204	-84.5846	142.112	-9.61276	-18.1503	143.848	-11.3439	16.2437	117.206	8.84106	-1.49821	
28	0.233333	80.9477	-6.36097	3.30336	62.9428	-15.9682	-24.0801	51.9283	-23.9936	-47.2749	46.8271	-34.8039	-70.0201	96.3136	6.50426	-72.002	83.8415	-5.70878	-93.5167	64.1508	-31.8891	-102.022	114.288	-3.47191	-77.2468	99.3215	-17.5063	-100.114	76.7634	-48.5775	-105.27	128.796	-18.9276	-71.9853	117.843	-34.1604	-94.1074	98.4084	-57.3281	-96.9603	139.97	-36.7024	-58.9758	129.216	-49.4748	-79.3927	112.13	-67.7349	-85.6938	141.978	-7.96718	-15.7241	145.647	-13.0896	15.4008	115.689	10.486	-2.12057	
29	0.241667	83.4648	-6.54845	5.37624	64.2617	-16.7571	-20.5548	49.3003	-23.2677	-49.0764	50.4913	-34.5523	-72.2895	100.053	3.33988	-72.6947	87.3077	-6.72842	-93.7505	70.3857	-28.8629	-103.051	117.299	-4.56611	-78.7871	102.133	-20.749	-101.482	76.2999	-47.5476	-107.395	131.715	-19.2583	-69.5807	118.14	-33.3359	-95.0526	97.7623	-56.0086	-99.6902	141.328	-36.1558	-57.4035	130.785	-50.3862	-79.9431	115.173	-67.7862	-86.9775	143.767	-8.59752	-17.4039	148.2	-13.166	14.6932	115.881	9.67814	1.68595	
30	0.25	82.0007	-6.6627	3.59637	63.7064	-17.1037	-21.8099	51.6656	-25.6266	-45.8635	49.8332	-36.1856	-66.9652	97.0889	5.81864	-69.4333	88.1448	-10.3498	-93.5816	72.1265	-29.2555	-103.787	117.009	-5.65675	-76.6834	102.286	-21.069	-102.063	81.0549	-48.5298	-108.379	131.641	-19.2953	-71.1965	118.256	-31.6424	-94.6215	100.052	-59.7806	-100.051	139.84	-35.7003	-57.6715	128.847	-47.2238	-78.5187	114.477	-64.7006	-87.308	144.164	-10.8078	-15.8241	145.676	-13.7093	12.7204	117.581	8.64239	1.94789	
31	0.258333	82.2337	-9.55926	6.87551	63.2161	-19.8761	-22.3619	51.4382	-27.2653	-45.2557	47.2258	-38.3437	-68.6814	99.8159	2.63399	-65.6127	85.1556	-10.5395	-92.7485	70.8258	-33.1669	-102.655	116.454	-6.40147	-76.571	102.844	-21.6029	-100.138	77.0661	-49.431	-108.101	128.64	-19.8616	-70.3715	118.007	-34.6619	-93.3922	98.8347	-54.5886	-99.7729	140.956	-38.1798	-56.3911	129.445	-47.4421	-76.7086	110.558	-63.8133	-86.6293	141.527	-11.4985	-15.2577	144.741	-12.945	16.5916	119.21	4.52736	2.34574	
32	0.266667	80.096	-7.51645	10.9776	62.0907	-17.1761	-21.341	49.5438	-23.0746	-47.2536	48.8004	-34.274	-69.3821	99.2985	7.57087	-63.3732	81.8784	-4.94543	-92.2055	68.8326	-24.8026	-100.33	115.721	-1.7887	-71.1311	98.7236	-14.7698	-99.0517	80.5435	-44.861	-107.385	129.494	-16.2897	-67.3871	117.63	-27.9902	-92.3649	99.3212	-54.2834	-99.6682	140.354	-33.2402	-54.3199	132.581	-45.878	-77.4756	109.158	-61.7046	-86.4214	144.849	-10.2882	-12.7593	147.271	-16.2398	14.9341	119.453	6.59887	1.11682	
33	0.275	83.8933	-6.64856	8.77967	64.8338	-14.0147	-17.5461	53.1973	-19.4632	-45.2393	51.2993	-26.8807	-71.9709	99.4374	15.6645	-66.3098	88.5163	4.84615	-91.0616	75.9959	-18.6148	-102.436	122.122	3.28793	-70.2371	105.767	-6.12299	-99.3386	85.3291	-32.8665	-109.273	134.288	-10.4592	-70.4695	124.292	-21.8882	-93.5722	108.496	-45.6266	-101.089	145.043	-27.2079	-57.7132	136.999	-37.9596	-79.1115	116.596	-57.1333	-91.4157	147.297	-3.98203	-11.7556	147.525	-10.5484	14.3475	117.542	10.3271	6.30416	
34	0.283333	89.5171	-8.45949	3.88192	70.4013	-14.0221	-24.4629	63.8223	-19.4079	-48.1683	59.8416	-25.6275	-76.4347	110.162	16.1149	-65.0305	94.5271	8.03423	-95.1317	84.7256	-13.1887	-105.999	124.792	12.415	-73.4618	115.753	1.10779	-99.8137	97.3854	-31.3183	-111.903	140.797	-3.54884	-68.249	134.782	-15.1995	-92.7094	114.277	-41.085	-104.1	153.004	-22.3707	-58.1408	146.145	-34.0834	-80.2755	128.068	-49.6544	-91.7316	152.076	-4.46225	-10.375	150.855	-10.9092	17.7676	121.984	10.501	3.2435	
35	0.291667	92.5852	-17.7649	4.27276	75.7267	-24.9791	-29.1254	65.6216	-31.4949	-53.6057	70.4045	-39.54	-76.8558	110.02	10.011	-70.9813	105.608	-2.98715	-95.4333	91.9354	-25.6703	-108.543	131.805	5.17576	-77.1157	123.653	-8.99868	-103.949	111.944	-42.1255	-112.951	149.66	-10.8553	-68.3076	139.244	-24.066	-96.2354	127.292	-54.3113	-102.782	159.574	-26.1373	-60.5494	154.704	-38.1393	-77.8881	138.318	-60.5713	-87.8362	152.623	-3.04783	-11.4904	153.765	-12.4782	19.2108	125.787	4.82098	1.9045	
36	0.3	91.3328	-25.0251	-1.60027	76.4442	-39.7458	-25.0873	65.7198	-49.9947	-55.7811	65.7685	-62.4158	-74.0202	114.339	-14.9084	-75.1039	103.852	-29.8789	-100.133	96.5757	-56.7044	-106.352	129.989	-18.8503	-80.833	125.373	-38.5368	-103.755	107.593	-74.2237	-106.263	148.115	-32.6899	-69.5433	140.627	-54.242	-93.5683	125.448	-81.5547	-92.0011	161.865	-48.1566	-54.5443	153.01	-68.8745	-76.2677	137.925	-84.9744	-77.4371	151.157	-17.0423	-15.8612	151.69	-16.0412	10.8643	123.436	-4.26079	-1.72398	
37	0.308333	88.0867	-28.0744	2.51274	67.201	-43.6639	-20.8298	54.2562	-59.1989	-48.3765	52.2161	-75.6254	-64.0506	107.823	-38.0804	-73.7097	98.7222	-57.2778	-96.0434	78.4585	-81.3464	-98.8093	126.114	-48.1459	-79.5679	116.107	-72.7436	-97.7683	93.9338	-102.911	-89.3874	140.489	-60.3798	-66.3192	127.029	-85.9607	-84.4162	107.599	-106.164	-76.9557	150.729	-76.5324	-49.7293	136.666	-97.8456	-62.6921	114.024	-111.166	-56.0425	149.418	-33.0589	-16.7068	152.679	-28.4171	8.52642	122.65	-14.5156	-12.1522	
38	0.316667	86.5782	-18.726	4.05815	61.7031	-31.4251	-16.5148	43.4473	-45.7972	-39.9719	34.9072	-63.0324	-50.7103	97.9319	-49.3581	-72.6599	79.7628	-65.5479	-90.404	56.6845	-84.6335	-86.4526	113.372	-65.7959	-71.5462	91.7856	-83.455	-88.3512	59.8638	-104.218	-76.5064	119.374	-78.7137	-61.4949	104.601	-99.6028	-72.3599	75.7707	-111.971	-62.2485	127.636	-92.1387	-38.2152	111.016	-110.998	-46.7312	84.5277	-114.967	-38.9547	140.337	-48.6427	-13.8942	145.548	-38.6176	9.52845	124.783	-20.4446	-11.7692	
39	0.325	90.589	-4.18177	3.65383	63.9233	-14.2715	-18.7258	44.2311	-23.95	-36.7763	28.4781	-35.9575	-46.1145	91.2382	-41.5673	-64.8364	68.9881	-53.479	-85.5475	38.7725	-62.4436	-83.0868	95.2398	-64.275	-68.8365	67.7773	-79.052	-81.0269	33.6117	-85.3954	-68.2346	97.9802	-83.8302	-53.6509	73.514	-94.094	-63.9812	43.0708	-95.2786	-52.7293	99.2357	-91.9652	-32.0224	74.2684	-104.736	-37.0203	48.5897	-97.9609	-26.2559	131.227	-59.5778	-10.0182	140.134	-49.4433	17.2725	126.369	-22.9951	-10.7091	
40	0.333333	105.587	4.4759	-1.65345	78.4548	6.11114	-19.5626	55.798	5.37245	-39.3402	37.9809	-5.07454	-51.7128	92.0851	-34.1941	-66.1608	66.2089	-40.2046	-83.432	33.3744	-35.201	-82.4866	86.4753	-59.18	-63.4061	59.5322	-58.2923	-78.8907	22.0225	-50.0723	-71.1043	82.0642	-73.5452	-45.3898	54.6851	-74.7057	-60.1037	25.8662	-67.215	-52.9285	75.5972	-83.9159	-24.6501	48.563	-82.9424	-30.7667	27.1952	-68.132	-24.1703	120.14	-59.1126	-8.52057	133.604	-53.5669	18.0663	128.942	-28.3754	-7.61721	
41	0.341667	122.029	7.44156	-3.93201	100.647	20.7953	-24.8388	79.5157	21.9576	-48.4918	58.0867	20.1067	-63.3035	99.3859	-26.4101	-69.9858	74.022	-23.4178	-89.0241	50.1805	-8.62079	-93.0999	83.7408	-46.5725	-68.2905	57.138	-40.7293	-81.9705	26.5679	-18.8175	-78.3579	72.3675	-58.387	-49.8436	51.5168	-52.0061	-64.486	23.0263	-31.2428	-60.3565	64.421	-63.703	-24.038	39.9566	-51.7432	-37.614	23.4597	-34.7045	-32.9625	113.599	-57.1344	-5.29642	122.282	-52.0573	17.9828	134.592	-27.736	-8.53683	
42	0.35	136.586	2.38205	-6.42445	122.339	18.6455	-29.5971	107.248	26.8897	-57.9348	87.6222	28.4134	-75.5141	108.343	-30.4604	-72.4687	92.2653	-22.411	-92.6855	73.3562	-2.21076	-102.232	89.6221	-45.4802	-69.3592	71.4296	-35.3058	-87.7284	48.8146	-5.14706	-94.511	79.8987	-47.7468	-53.5404	58.2271	-38.7911	-72.5487	42.5571	-15.3987	-77.6274	63.3354	-49.9524	-29.5373	45.051	-38.6879	-44.5076	33.3409	-12.6135	-49.6092	110.429	-54.8557	-4.36863	117.045	-51.9466	20.0211	137.59	-34.6993	-9.30034	
